<?xml version="1.0" standalone="no"?>
<!DOCTYPE svg PUBLIC "-//W3C//DTD SVG 20010904//EN"
 "http://www.w3.org/TR/2001/REC-SVG-20010904/DTD/svg10.dtd">
<svg version="1.0" xmlns="http://www.w3.org/2000/svg"
 width="260.000000pt" height="260.000000pt" viewBox="0 0 260.000000 260.000000"
 preserveAspectRatio="xMidYMid meet">

<g transform="translate(0.000000,260.000000) scale(0.100000,-0.100000)"
fill="#000000" stroke="none">
<path d="M1395 2540 c26 -72 45 -200 45 -295 0 -277 -115 -508 -348 -698 -38
-31 -74 -57 -81 -57 -17 0 -87 113 -107 173 -9 28 -22 89 -28 136 l-12 86 -83
-100 c-207 -250 -362 -534 -428 -784 -33 -124 -38 -328 -10 -431 97 -363 436
-565 947 -563 410 1 665 98 815 308 62 86 120 214 147 321 30 118 32 399 5
539 -75 382 -263 746 -566 1095 -87 100 -249 267 -283 291 l-27 20 14 -41z"/>
</g>
</svg>
