<?xml version="1.0" standalone="no"?>
<!DOCTYPE svg PUBLIC "-//W3C//DTD SVG 20010904//EN"
 "http://www.w3.org/TR/2001/REC-SVG-20010904/DTD/svg10.dtd">
<svg version="1.0" xmlns="http://www.w3.org/2000/svg"
 width="900.000000pt" height="520.000000pt" viewBox="0 0 900.000000 520.000000"
 preserveAspectRatio="xMidYMid meet">
<metadata>
Created by potrace 1.15, written by Peter Selinger 2001-2017
</metadata>
<g transform="translate(0.000000,520.000000) scale(0.100000,-0.100000)"
fill="#000000" stroke="none">
<path d="M5756 3876 c-231 -228 -424 -412 -429 -409 -11 7 8 -30 67 -130 239
-404 355 -797 356 -1203 0 -185 -15 -293 -61 -434 -108 -329 -311 -537 -619
-634 -261 -83 -702 -100 -985 -40 -179 39 -372 122 -484 208 -69 54 -168 156
-206 214 -15 23 -32 41 -36 40 -17 -6 -509 -503 -509 -514 0 -7 24 -34 54 -62
359 -327 809 -540 1284 -606 144 -20 477 -21 622 -2 441 60 851 238 1195 521
428 352 727 872 820 1425 22 133 31 456 16 610 -33 343 -146 689 -318 978 -65
110 -204 296 -290 390 l-58 64 -419 -416z"/>
</g>
</svg>
